<svg xmlns="http://www.w3.org/2000/svg" viewBox="0 0 120 120" width="100%" height="100%">
  <!-- Background Circle (Colorable via id="avatar-bg") -->
  <circle id="avatar-bg" cx="60" cy="60" r="58" fill="#1E3A8A"/>

  <defs>
    <clipPath id="clip_avatar_35">
      <circle cx="60" cy="60" r="58"/>
    </clipPath>
  </defs>

  <g clip-path="url(#clip_avatar_35)">
    <!-- Back Hair (if applicable) -->
    

    <!-- Shoulders & Clothes -->
    <path d="M16 120 C16 94 36 84 60 84 C84 84 104 94 104 120 Z" fill="#1E40AF"/>

    <!-- Clothing Collar / Neckline -->
    <path d="M48 84 L60 96 L72 84 Z" fill="#DBEAFE"/>
    <path d="M52 84 L60 92 L68 84 Z" fill="#1E40AF" opacity="0.3"/>

    <!-- Neck Shadow & Neck -->
    <path d="M51 72 L51 90 C51 95 69 95 69 90 L69 72 Z" fill="#DCAE7E"/>
    <rect x="52" y="70" width="16" height="16" rx="8" fill="#F0C495"/>

    <!-- Ears -->
    <circle cx="37" cy="56" r="5.5" fill="#F0C495"/>
    <circle cx="37" cy="56" r="3" fill="#DCAE7E" opacity="0.6"/>
    <circle cx="83" cy="56" r="5.5" fill="#F0C495"/>
    <circle cx="83" cy="56" r="3" fill="#DCAE7E" opacity="0.6"/>

    <!-- Head / Face -->
    <ellipse cx="60" cy="55" rx="22" ry="25" fill="#F0C495"/>

    <!-- Soft Cheeks Blush -->
    <circle cx="47" cy="62" r="3.5" fill="#F43F5E" opacity="0.35"/>
    <circle cx="73" cy="62" r="3.5" fill="#F43F5E" opacity="0.35"/>

    <!-- Eyebrows -->
    <path d="M45 47 Q50 44 55 46" stroke="#1C1917" stroke-width="2.2" stroke-linecap="round" fill="none"/>
    <path d="M65 46 Q70 44 75 47" stroke="#1C1917" stroke-width="2.2" stroke-linecap="round" fill="none"/>

    <!-- Eyes (Big, Bright & Friendly) -->
    <ellipse cx="50" cy="53" rx="3.2" ry="3.8" fill="#0F172A"/>
    <circle cx="51" cy="52" r="1.3" fill="#FFFFFF"/>
    <circle cx="49" cy="54.5" r="0.7" fill="#FFFFFF"/>

    <ellipse cx="70" cy="53" rx="3.2" ry="3.8" fill="#0F172A"/>
    <circle cx="71" cy="52" r="1.3" fill="#FFFFFF"/>
    <circle cx="69" cy="54.5" r="0.7" fill="#FFFFFF"/>

    <!-- Cute Nose -->
    <path d="M60 55 Q61 59 58 60" stroke="#DCAE7E" stroke-width="1.8" stroke-linecap="round" fill="none"/>

    <!-- Smile -->
    
    <!-- Gentle Warm Smile -->
    <path d="M54 66 Q60 71 66 66" stroke="#991B1B" stroke-width="2.2" stroke-linecap="round" fill="none"/>
  

    <!-- Glasses (if applicable) -->
    
      <!-- Square Glasses Silver/Dark -->
      <rect x="42" y="47" width="16" height="13" rx="3.5" fill="rgba(255,255,255,0.15)" stroke="#334155" stroke-width="2"/>
      <rect x="62" y="47" width="16" height="13" rx="3.5" fill="rgba(255,255,255,0.15)" stroke="#334155" stroke-width="2"/>
      <line x1="58" y1="53" x2="62" y2="53" stroke="#334155" stroke-width="2"/>
      <line x1="42" y1="52" x2="38" y2="50" stroke="#334155" stroke-width="1.8"/>
      <line x1="78" y1="52" x2="82" y2="50" stroke="#334155" stroke-width="1.8"/>
    

    <!-- Front Hair -->
    <path d="M37 50 C37 32 46 24 60 24 C74 24 83 32 83 50 C80 38 72 32 60 32 C48 32 40 38 37 50 Z" fill="#1C1917"/>
              <path d="M46 28 C54 22 66 22 74 28 C66 24 54 24 46 28 Z" fill="#1C1917"/>
  </g>
</svg>