<svg xmlns="http://www.w3.org/2000/svg" viewBox="0 0 120 120" width="100%" height="100%">
  <!-- Background Circle (Colorable via id="avatar-bg") -->
  <circle id="avatar-bg" cx="60" cy="60" r="58" fill="#EAB308"/>

  <defs>
    <clipPath id="clip_avatar_04">
      <circle cx="60" cy="60" r="58"/>
    </clipPath>
  </defs>

  <g clip-path="url(#clip_avatar_04)">
    <!-- Back Hair (if applicable) -->
    <path d="M74 34 C88 28 98 42 96 60 C94 72 88 80 84 82 C82 82 82 76 84 70 C88 56 82 44 74 38 Z" fill="#312017"/>
              <ellipse cx="73" cy="35" rx="5" ry="5" fill="#E11D48"/>

    <!-- Shoulders & Clothes -->
    <path d="M16 120 C16 94 36 84 60 84 C84 84 104 94 104 120 Z" fill="#CA8A04"/>

    <!-- Clothing Collar / Neckline -->
    <path d="M48 84 L60 96 L72 84 Z" fill="#FEF9C3"/>
    <path d="M52 84 L60 92 L68 84 Z" fill="#CA8A04" opacity="0.3"/>

    <!-- Neck Shadow & Neck -->
    <path d="M51 72 L51 90 C51 95 69 95 69 90 L69 72 Z" fill="#CF9957"/>
    <rect x="52" y="70" width="16" height="16" rx="8" fill="#E0AC69"/>

    <!-- Ears -->
    <circle cx="37" cy="56" r="5.5" fill="#E0AC69"/>
    <circle cx="37" cy="56" r="3" fill="#CF9957" opacity="0.6"/>
    <circle cx="83" cy="56" r="5.5" fill="#E0AC69"/>
    <circle cx="83" cy="56" r="3" fill="#CF9957" opacity="0.6"/>

    <!-- Head / Face -->
    <ellipse cx="60" cy="55" rx="22" ry="25" fill="#E0AC69"/>

    <!-- Soft Cheeks Blush -->
    <circle cx="47" cy="62" r="3.5" fill="#F43F5E" opacity="0.35"/>
    <circle cx="73" cy="62" r="3.5" fill="#F43F5E" opacity="0.35"/>

    <!-- Eyebrows -->
    <path d="M45 47 Q50 44 55 46" stroke="#312017" stroke-width="2.2" stroke-linecap="round" fill="none"/>
    <path d="M65 46 Q70 44 75 47" stroke="#312017" stroke-width="2.2" stroke-linecap="round" fill="none"/>

    <!-- Eyes (Big, Bright & Friendly) -->
    <ellipse cx="50" cy="53" rx="3.2" ry="3.8" fill="#0F172A"/>
    <circle cx="51" cy="52" r="1.3" fill="#FFFFFF"/>
    <circle cx="49" cy="54.5" r="0.7" fill="#FFFFFF"/>

    <ellipse cx="70" cy="53" rx="3.2" ry="3.8" fill="#0F172A"/>
    <circle cx="71" cy="52" r="1.3" fill="#FFFFFF"/>
    <circle cx="69" cy="54.5" r="0.7" fill="#FFFFFF"/>

    <!-- Cute Nose -->
    <path d="M60 55 Q61 59 58 60" stroke="#CF9957" stroke-width="1.8" stroke-linecap="round" fill="none"/>

    <!-- Smile -->
    
      <!-- Cheerful Open Smile with Teeth -->
      <path d="M53 66 Q60 75 67 66 Z" fill="#991B1B"/>
      <path d="M54 66 Q60 70 66 66 Z" fill="#FFFFFF"/>
    

    <!-- Glasses (if applicable) -->
    

    <!-- Front Hair -->
    <path d="M36 50 C36 34 46 26 60 26 C74 26 84 34 84 50 C80 40 72 34 60 34 C48 34 40 40 36 50 Z" fill="#312017"/>
              <path d="M42 42 C48 38 56 36 64 38 C72 40 76 44 78 48 C74 42 66 38 58 38 C50 38 44 42 42 42 Z" fill="#312017"/>
  </g>
</svg>