<svg xmlns="http://www.w3.org/2000/svg" viewBox="0 0 120 120" width="100%" height="100%">
  <!-- Background Circle (Colorable via id="avatar-bg") -->
  <circle id="avatar-bg" cx="60" cy="60" r="58" fill="#6366F1"/>

  <defs>
    <clipPath id="clip_avatar_27">
      <circle cx="60" cy="60" r="58"/>
    </clipPath>
  </defs>

  <g clip-path="url(#clip_avatar_27)">
    <!-- Back Hair (if applicable) -->
    

    <!-- Shoulders & Clothes -->
    <path d="M16 120 C16 94 36 84 60 84 C84 84 104 94 104 120 Z" fill="#4338CA"/>

    <!-- Clothing Collar / Neckline -->
    <path d="M48 84 L60 96 L72 84 Z" fill="#EEF2FF"/>
    <path d="M52 84 L60 92 L68 84 Z" fill="#4338CA" opacity="0.3"/>

    <!-- Neck Shadow & Neck -->
    <path d="M51 72 L51 90 C51 95 69 95 69 90 L69 72 Z" fill="#B87F43"/>
    <rect x="52" y="70" width="16" height="16" rx="8" fill="#CF9456"/>

    <!-- Ears -->
    <circle cx="37" cy="56" r="5.5" fill="#CF9456"/>
    <circle cx="37" cy="56" r="3" fill="#B87F43" opacity="0.6"/>
    <circle cx="83" cy="56" r="5.5" fill="#CF9456"/>
    <circle cx="83" cy="56" r="3" fill="#B87F43" opacity="0.6"/>

    <!-- Head / Face -->
    <ellipse cx="60" cy="55" rx="22" ry="25" fill="#CF9456"/>

    <!-- Soft Cheeks Blush -->
    <circle cx="47" cy="62" r="3.5" fill="#F43F5E" opacity="0.35"/>
    <circle cx="73" cy="62" r="3.5" fill="#F43F5E" opacity="0.35"/>

    <!-- Eyebrows -->
    <path d="M45 47 Q50 44 55 46" stroke="#3F2E21" stroke-width="2.2" stroke-linecap="round" fill="none"/>
    <path d="M65 46 Q70 44 75 47" stroke="#3F2E21" stroke-width="2.2" stroke-linecap="round" fill="none"/>

    <!-- Eyes (Big, Bright & Friendly) -->
    <ellipse cx="50" cy="53" rx="3.2" ry="3.8" fill="#0F172A"/>
    <circle cx="51" cy="52" r="1.3" fill="#FFFFFF"/>
    <circle cx="49" cy="54.5" r="0.7" fill="#FFFFFF"/>

    <ellipse cx="70" cy="53" rx="3.2" ry="3.8" fill="#0F172A"/>
    <circle cx="71" cy="52" r="1.3" fill="#FFFFFF"/>
    <circle cx="69" cy="54.5" r="0.7" fill="#FFFFFF"/>

    <!-- Cute Nose -->
    <path d="M60 55 Q61 59 58 60" stroke="#B87F43" stroke-width="1.8" stroke-linecap="round" fill="none"/>

    <!-- Smile -->
    
      <!-- Cheerful Open Smile with Teeth -->
      <path d="M53 66 Q60 75 67 66 Z" fill="#991B1B"/>
      <path d="M54 66 Q60 70 66 66 Z" fill="#FFFFFF"/>
    

    <!-- Glasses (if applicable) -->
    

    <!-- Front Hair -->
    <path d="M36 50 C36 34 46 28 60 28 C74 28 84 34 84 50 C80 42 74 36 60 36 C46 36 40 42 36 50 Z" fill="#3F2E21"/>
              <polygon points="42,32 46,20 50,30" fill="#3F2E21"/>
              <polygon points="50,30 55,18 60,29" fill="#3F2E21"/>
              <polygon points="60,29 65,19 70,30" fill="#3F2E21"/>
              <polygon points="70,31 75,22 78,33" fill="#3F2E21"/>
  </g>
</svg>