<svg xmlns="http://www.w3.org/2000/svg" viewBox="0 0 120 120" width="100%" height="100%">
  <!-- Background Circle (Colorable via id="avatar-bg") -->
  <circle id="avatar-bg" cx="60" cy="60" r="58" fill="#D97706"/>

  <defs>
    <clipPath id="clip_avatar_34">
      <circle cx="60" cy="60" r="58"/>
    </clipPath>
  </defs>

  <g clip-path="url(#clip_avatar_34)">
    <!-- Back Hair (if applicable) -->
    <path d="M34 50 C24 64 22 84 26 96 C28 98 34 96 32 90 C30 80 32 68 38 56 Z" fill="#1C1917"/>
              <path d="M86 50 C96 64 98 84 94 96 C92 98 86 96 88 90 C90 80 88 68 82 56 Z" fill="#1C1917"/>
              <ellipse cx="32" cy="52" rx="4" ry="3" fill="#D97706"/>
              <ellipse cx="88" cy="52" rx="4" ry="3" fill="#D97706"/>

    <!-- Shoulders & Clothes -->
    <path d="M16 120 C16 94 36 84 60 84 C84 84 104 94 104 120 Z" fill="#B45309"/>

    <!-- Clothing Collar / Neckline -->
    <path d="M48 84 L60 96 L72 84 Z" fill="#FEF3C7"/>
    <path d="M52 84 L60 92 L68 84 Z" fill="#B45309" opacity="0.3"/>

    <!-- Neck Shadow & Neck -->
    <path d="M51 72 L51 90 C51 95 69 95 69 90 L69 72 Z" fill="#C68949"/>
    <rect x="52" y="70" width="16" height="16" rx="8" fill="#DE9E5C"/>

    <!-- Ears -->
    <circle cx="37" cy="56" r="5.5" fill="#DE9E5C"/>
    <circle cx="37" cy="56" r="3" fill="#C68949" opacity="0.6"/>
    <circle cx="83" cy="56" r="5.5" fill="#DE9E5C"/>
    <circle cx="83" cy="56" r="3" fill="#C68949" opacity="0.6"/>

    <!-- Head / Face -->
    <ellipse cx="60" cy="55" rx="22" ry="25" fill="#DE9E5C"/>

    <!-- Soft Cheeks Blush -->
    <circle cx="47" cy="62" r="3.5" fill="#F43F5E" opacity="0.35"/>
    <circle cx="73" cy="62" r="3.5" fill="#F43F5E" opacity="0.35"/>

    <!-- Eyebrows -->
    <path d="M45 47 Q50 44 55 46" stroke="#1C1917" stroke-width="2.2" stroke-linecap="round" fill="none"/>
    <path d="M65 46 Q70 44 75 47" stroke="#1C1917" stroke-width="2.2" stroke-linecap="round" fill="none"/>

    <!-- Eyes (Big, Bright & Friendly) -->
    <ellipse cx="50" cy="53" rx="3.2" ry="3.8" fill="#0F172A"/>
    <circle cx="51" cy="52" r="1.3" fill="#FFFFFF"/>
    <circle cx="49" cy="54.5" r="0.7" fill="#FFFFFF"/>

    <ellipse cx="70" cy="53" rx="3.2" ry="3.8" fill="#0F172A"/>
    <circle cx="71" cy="52" r="1.3" fill="#FFFFFF"/>
    <circle cx="69" cy="54.5" r="0.7" fill="#FFFFFF"/>

    <!-- Cute Nose -->
    <path d="M60 55 Q61 59 58 60" stroke="#C68949" stroke-width="1.8" stroke-linecap="round" fill="none"/>

    <!-- Smile -->
    
      <!-- Cheerful Open Smile with Teeth -->
      <path d="M53 66 Q60 75 67 66 Z" fill="#991B1B"/>
      <path d="M54 66 Q60 70 66 66 Z" fill="#FFFFFF"/>
    

    <!-- Glasses (if applicable) -->
    

    <!-- Front Hair -->
    <path d="M36 50 C36 34 46 27 60 27 C74 27 84 34 84 50 C80 40 72 35 60 35 C48 35 40 40 36 50 Z" fill="#1C1917"/>
              <path d="M42 44 C48 40 54 38 60 40 C54 42 48 46 44 48 Z" fill="#1C1917"/>
              <path d="M78 44 C72 40 66 38 60 40 C66 42 72 46 76 48 Z" fill="#1C1917"/>
  </g>
</svg>